<svg width="69" height="68" viewBox="0 0 69 68" fill="none" xmlns="http://www.w3.org/2000/svg">
<g clip-path="url(#clip0_5_185)">
<path d="M63.9065 0H5.09354C3.74265 0 2.44709 0.528863 1.49186 1.47024C0.53664 2.41162 0 3.68841 0 5.01972V62.9803C0 64.3116 0.53664 65.5884 1.49186 66.5298C2.44709 67.4711 3.74265 68 5.09354 68H63.9065C65.2573 68 66.5529 67.4711 67.5081 66.5298C68.4634 65.5884 69 64.3116 69 62.9803V5.01972C69 3.68841 68.4634 2.41162 67.5081 1.47024C66.5529 0.528863 65.2573 0 63.9065 0ZM20.5658 57.9275H10.1919V25.4528H20.5658V57.9275ZM15.3717 20.9525C14.1949 20.946 13.0465 20.5961 12.0714 19.9469C11.0962 19.2978 10.338 18.3785 9.89252 17.3051C9.447 16.2317 9.33411 15.0523 9.56809 13.9158C9.80207 12.7792 10.3724 11.7364 11.2072 10.919C12.042 10.1016 13.1037 9.54626 14.2585 9.32297C15.4132 9.09969 16.6092 9.21852 17.6955 9.66446C18.7818 10.1104 19.7097 10.8635 20.3621 11.8286C21.0145 12.7938 21.3622 13.9278 21.3613 15.0875C21.3724 15.8639 21.2247 16.6346 20.9272 17.3536C20.6296 18.0726 20.1882 18.7252 19.6293 19.2725C19.0703 19.8198 18.4053 20.2506 17.6738 20.5393C16.9424 20.8279 16.1594 20.9684 15.3717 20.9525ZM58.8033 57.9558H48.4342V40.2144C48.4342 34.9822 46.1773 33.3672 43.264 33.3672C40.1877 33.3672 37.169 35.6528 37.169 40.3467V57.9558H26.795V25.4764H36.7713V29.9767H36.9054C37.9069 27.9792 41.4144 24.565 46.7667 24.565C52.555 24.565 58.8081 27.9508 58.8081 37.8675L58.8033 57.9558Z" fill="#0A66C2"/>
</g>
<defs>
<clipPath id="clip0_5_185">
<rect width="69" height="68" fill="white"/>
</clipPath>
</defs>
</svg>
