<svg width="75" height="76" viewBox="0 0 75 76" fill="none" xmlns="http://www.w3.org/2000/svg">
<g clip-path="url(#clip0_6_7)">
<path d="M75 38C75 17.0134 58.2105 0 37.5 0C16.7895 0 0 17.0134 0 38C0 55.8205 12.108 70.7742 28.4415 74.8813V49.6128H20.709V38H28.4415V32.9962C28.4415 20.0625 34.218 14.0676 46.749 14.0676C49.125 14.0676 53.2245 14.5403 54.9015 15.0115V25.5375C54.0165 25.4433 52.479 25.3962 50.5695 25.3962C44.421 25.3962 42.045 27.7567 42.045 33.893V38H54.294L52.1895 49.6128H42.045V75.7218C60.6135 73.4494 75.0015 57.4286 75.0015 38H75Z" fill="#0866FF"/>
<path d="M52.188 49.6128L54.2925 38H42.0435V33.893C42.0435 27.7567 44.4195 25.3962 50.568 25.3962C52.4775 25.3962 54.015 25.4433 54.9 25.5375V15.0115C53.223 14.5388 49.1235 14.0676 46.7475 14.0676C34.2165 14.0676 28.44 20.0625 28.44 32.9962V38H20.7075V49.6128H28.44V74.8813C31.341 75.6109 34.3755 76 37.4985 76C39.036 76 40.5525 75.9042 42.042 75.7218V49.6128H52.1865H52.188Z" fill="white"/>
</g>
<defs>
<clipPath id="clip0_6_7">
<rect width="75" height="76" fill="white"/>
</clipPath>
</defs>
</svg>
