<svg width="72" height="73" viewBox="0 0 72 73" fill="none" xmlns="http://www.w3.org/2000/svg">
<g clip-path="url(#clip0_5_180)">
<path d="M36 6.57285C45.6188 6.57285 46.7578 6.61562 50.5406 6.78672C54.0563 6.94355 55.9547 7.54238 57.2203 8.04141C58.8938 8.69727 60.1031 9.4957 61.3547 10.7646C62.6203 12.0479 63.3938 13.2598 64.0406 14.9564C64.5328 16.2396 65.1234 18.1787 65.2781 21.7289C65.4469 25.5785 65.4891 26.7334 65.4891 36.4715C65.4891 46.2238 65.4469 47.3787 65.2781 51.2141C65.1234 54.7785 64.5328 56.7033 64.0406 57.9865C63.3938 59.6832 62.6063 60.9094 61.3547 62.1783C60.0891 63.4615 58.8938 64.2457 57.2203 64.9016C55.9547 65.4006 54.0422 65.9994 50.5406 66.1563C46.7438 66.3273 45.6047 66.3701 36 66.3701C26.3813 66.3701 25.2422 66.3273 21.4594 66.1563C17.9438 65.9994 16.0453 65.4006 14.7797 64.9016C13.1063 64.2457 11.8969 63.4473 10.6453 62.1783C9.37969 60.8951 8.60625 59.6832 7.95938 57.9865C7.46719 56.7033 6.87656 54.7643 6.72188 51.2141C6.55313 47.3645 6.51094 46.2096 6.51094 36.4715C6.51094 26.7191 6.55313 25.5643 6.72188 21.7289C6.87656 18.1645 7.46719 16.2396 7.95938 14.9564C8.60625 13.2598 9.39375 12.0336 10.6453 10.7646C11.9109 9.48145 13.1063 8.69727 14.7797 8.04141C16.0453 7.54238 17.9578 6.94355 21.4594 6.78672C25.2422 6.61562 26.3813 6.57285 36 6.57285ZM36 0C26.2266 0 25.0031 0.0427734 21.1641 0.213867C17.3391 0.384961 14.7094 1.0123 12.4313 1.91055C10.0547 2.85156 8.04375 4.09199 6.04688 6.13086C4.03594 8.15547 2.8125 10.1943 1.88438 12.5896C0.998437 14.9137 0.379688 17.5656 0.210938 21.4437C0.0421875 25.3504 0 26.5908 0 36.5C0 46.4092 0.0421875 47.6496 0.210938 51.542C0.379688 55.4201 0.998437 58.0863 1.88438 60.3961C2.8125 62.8057 4.03594 64.8445 6.04688 66.8691C8.04375 68.8938 10.0547 70.1484 12.4172 71.0752C14.7094 71.9734 17.325 72.6008 21.15 72.7719C24.9891 72.943 26.2125 72.9857 35.9859 72.9857C45.7594 72.9857 46.9828 72.943 50.8219 72.7719C54.6469 72.6008 57.2766 71.9734 59.5547 71.0752C61.9172 70.1484 63.9281 68.8938 65.925 66.8691C67.9219 64.8445 69.1594 62.8057 70.0734 60.4104C70.9594 58.0863 71.5781 55.4344 71.7469 51.5563C71.9156 47.6639 71.9578 46.4234 71.9578 36.5143C71.9578 26.6051 71.9156 25.3646 71.7469 21.4723C71.5781 17.5941 70.9594 14.9279 70.0734 12.6182C69.1875 10.1943 67.9641 8.15547 65.9531 6.13086C63.9563 4.10625 61.9453 2.85156 59.5828 1.9248C57.2906 1.02656 54.675 0.399219 50.85 0.228125C46.9969 0.0427735 45.7734 0 36 0Z" fill="#000100"/>
<path d="M36 17.751C25.7906 17.751 17.5078 26.1488 17.5078 36.5C17.5078 46.8512 25.7906 55.249 36 55.249C46.2094 55.249 54.4922 46.8512 54.4922 36.5C54.4922 26.1488 46.2094 17.751 36 17.751ZM36 48.6619C29.3766 48.6619 24.0047 43.2154 24.0047 36.5C24.0047 29.7846 29.3766 24.3381 36 24.3381C42.6234 24.3381 47.9953 29.7846 47.9953 36.5C47.9953 43.2154 42.6234 48.6619 36 48.6619Z" fill="#000100"/>
<path d="M59.5406 17.0096C59.5406 19.4335 57.6 21.3868 55.2234 21.3868C52.8328 21.3868 50.9062 19.4192 50.9062 17.0096C50.9062 14.5858 52.8469 12.6325 55.2234 12.6325C57.6 12.6325 59.5406 14.6001 59.5406 17.0096Z" fill="#000100"/>
</g>
<defs>
<clipPath id="clip0_5_180">
<rect width="72" height="73" fill="white"/>
</clipPath>
</defs>
</svg>
